<svg width="40" height="40" viewBox="0 0 40 40" fill="none" xmlns="http://www.w3.org/2000/svg">
<path d="M1 16.9813C2.7757 16.6262 7.03738 15.4187 9.8785 13.4299C10.336 13.1097 10.9408 12.8425 11.6542 12.6291M1 16.9813L3.13084 17.6916V18.757H1M1 16.9813V18.757M4.5514 24.4393C3.13084 24.7234 1.5919 23.1371 1 22.3084V18.757M39 19.8224V23.3738C38.7632 23.729 37.9346 24.4393 36.514 24.4393M39 19.8224C38.5238 18.87 37.267 17.9884 35.864 17.3365M39 19.8224C36.443 20.3907 35.8439 18.4019 35.864 17.3365M12.3645 24.0841H28.7009M11.6542 12.6291C16.479 11.1859 26.2715 12.2032 29.0561 15.9159C29.1117 16.0272 29.1096 16.175 29.4112 16.271M11.6542 12.6291L15.9159 21.243M13.456 16.271H29.4112M29.4112 16.271C29.7514 16.3793 30.7742 16.271 31.5421 16.271C32.6075 16.271 34.1283 16.5299 35.864 17.3365" stroke="#ABABAB" stroke-linecap="round" stroke-linejoin="round"/>
<circle cx="8.45797" cy="23.729" r="3.76168" stroke="#ABABAB"/>
<circle cx="32.6074" cy="23.729" r="3.76168" stroke="#ABABAB"/>
</svg>
