<svg width="364" height="364" viewBox="0 0 364 364" fill="none" xmlns="http://www.w3.org/2000/svg">
<g opacity="0.6" clip-path="url(#clip0_943_28111)">
<path fill-rule="evenodd" clip-rule="evenodd" d="M295.062 91.9375L278.875 82.6875V54.9375C278.875 53.0976 279.606 51.333 280.907 50.0319C282.208 48.7309 283.973 48 285.812 48H318.188C320.027 48 321.792 48.7309 323.093 50.0319C324.394 51.333 325.125 53.0976 325.125 54.9375V82.6875L308.938 91.9375L302 88.4688L295.062 91.9375ZM269.898 64.8119L274.25 62.4901V79.8478L265 74.4226V72.975C265 71.2982 265.455 69.6529 266.318 68.215C267.181 66.7771 268.418 65.6008 269.898 64.8119ZM339 74.4226L329.75 79.8478V62.4901L334.102 64.8119C335.582 65.6008 336.819 66.7771 337.682 68.215C338.545 69.6529 339 71.2982 339 72.975V74.4226ZM339 79.7876L312.67 95.2212L339 109.845V79.7876ZM302 94.583L338.727 114.989C338.228 116.991 337.073 118.769 335.446 120.04C333.819 121.311 331.814 122 329.75 122H274.25C272.186 122 270.181 121.311 268.554 120.04C266.927 118.769 265.772 116.991 265.273 114.989L302 94.583ZM265 109.845L291.33 95.2212L265 79.7876V109.85V109.845Z" fill="#009B61"/>
</g>
<path d="M63 227.5V127.25C63 94.251 89.751 67.5 122.75 67.5V67.5C155.749 67.5 182.5 94.251 182.5 127.25V236.25C182.5 269.249 209.251 296 242.25 296V296C275.249 296 302 269.249 302 236.25V139.5" stroke="#EA4237" stroke-opacity="0.4" stroke-width="10" stroke-linecap="round" stroke-dasharray="30 30"/>
<path fill-rule="evenodd" clip-rule="evenodd" d="M63.3256 245C49.8168 245 38.8657 255.951 38.8657 269.46V285.584C36.4297 285.476 32.7262 286.023 31.2255 288.636C30.6386 289.658 31.6052 290.721 32.7835 290.721H36.2082C37.3643 290.721 38.3016 289.784 38.3016 288.628C38.3016 288.204 38.515 287.811 38.8657 287.58V328.54C38.8657 342.049 49.8168 353 63.3256 353C76.8345 353 87.7855 342.049 87.7855 328.54V287.579C88.1372 287.81 88.3512 288.204 88.3512 288.628C88.3512 289.784 89.2885 290.721 90.4446 290.721H93.8692C95.0475 290.721 96.0142 289.658 95.4273 288.636C93.9262 286.022 90.2215 285.475 87.7855 285.584V269.46C87.7855 255.951 76.8345 245 63.3256 245ZM53.9198 249.328C50.5958 250.519 43.609 254.521 42.2543 260.993C45.1393 259.049 51.5115 253.994 53.9198 249.328ZM74.2404 249.328C77.5644 250.519 84.5512 254.521 85.9059 260.993C83.0209 259.049 76.6487 253.994 74.2404 249.328ZM42.819 294.861C41.941 300.568 40.7117 313.413 42.819 319.132C44.2616 316.185 46.2811 307.204 42.819 294.861ZM84.4313 294.861C85.3093 300.568 86.5386 313.413 84.4313 319.132C82.9887 316.185 80.9692 307.204 84.4313 294.861ZM47.5234 321.767C52.8544 322.896 66.7903 324.476 79.8857 321.767L81.9554 326.659C75.2446 330.233 58.5868 335.238 45.6418 326.659L47.5234 321.767ZM81.7089 295.049C67.0528 289.861 51.4562 292.887 45.4898 295.049L43.3841 285.681C59.5653 272.094 76.5147 278.836 84.0252 285.681L81.7089 295.049Z" fill="#C5181D" fill-opacity="0.7"/>
<defs>
<clipPath id="clip0_943_28111">
<rect width="74" height="74" fill="white" transform="translate(265 48)"/>
</clipPath>
</defs>
</svg>
